<svg version="1.1" id="Layer_1" xmlns="http://www.w3.org/2000/svg" xmlns:xlink="http://www.w3.org/1999/xlink" x="0px" y="0px"
	 width="100%" viewBox="0 0 672 1024" enable-background="new 0 0 672 1024" xml:space="preserve">
<path fill="#ff9100fb" opacity="1.000000" stroke="none" 
	d="
M231.846863,207.793274 
	C259.185822,186.429138 298.145721,190.546967 324.557159,210.835007 
	C327.326111,212.961960 330.112671,215.149277 332.482758,217.689514 
	C335.028290,220.417725 336.804321,220.751663 339.801910,218.012924 
	C353.552460,205.449768 369.497650,197.206284 388.217926,195.193634 
	C419.833771,191.794571 449.214325,204.395401 463.675079,229.766342 
	C465.397766,232.788712 467.132355,235.982559 467.917053,239.319031 
	C469.063385,244.193146 471.872131,245.683228 476.491821,245.703094 
	C488.729584,245.755692 500.210327,248.986404 510.790100,255.047211 
	C531.839722,267.105865 542.706604,285.884949 546.359802,309.428650 
	C547.631653,317.625397 547.184387,325.664673 545.494995,333.704742 
	C544.783447,337.091125 545.625366,339.607452 548.452637,342.008331 
	C569.418152,359.812408 579.845520,382.611786 579.182983,410.080383 
	C578.722839,429.159515 572.604980,446.356018 559.226013,460.428406 
	C556.447144,463.351318 555.574036,465.750732 556.748901,470.046417 
	C563.931641,496.308228 562.035095,521.354919 543.907959,543.086731 
	C530.113159,559.624573 512.200256,568.733459 490.443207,569.269226 
	C486.166962,569.374512 483.884369,570.663025 482.166687,574.642883 
	C478.011322,584.270752 470.836975,591.378540 461.962280,596.820618 
	C459.848663,598.116699 457.697144,599.350952 455.680115,600.544312 
	C455.484253,603.334717 457.607666,604.192444 458.943634,605.527405 
	C466.830994,613.408569 475.206512,620.836914 480.711151,630.797607 
	C491.256317,649.879028 488.339417,673.713074 473.265076,690.641663 
	C472.378662,691.637146 471.549438,692.705139 470.550720,693.575317 
	C464.680176,698.690002 460.573853,704.013855 460.717468,712.883606 
	C460.840271,720.467102 454.829346,726.002625 448.314575,729.998535 
	C446.335510,731.212463 444.183228,732.151733 442.081146,733.155762 
	C437.405304,735.389099 437.225464,736.393250 441.021210,739.688049 
	C448.729492,746.379028 457.886169,749.659668 467.878052,750.581787 
	C475.226898,751.260010 482.493225,750.423340 489.533813,747.997559 
	C508.284271,741.537415 516.624878,727.165283 519.709778,708.656433 
	C521.090210,700.373901 519.212280,691.759460 521.042969,683.808105 
	C523.626831,672.585693 523.165405,661.904968 521.874512,650.592773 
	C519.617920,630.818604 528.685547,615.403503 544.711304,604.181396 
	C554.180115,597.550781 564.619019,592.728516 575.959900,590.108704 
	C577.889038,589.663086 579.903381,589.314880 581.870117,589.352844 
	C589.092834,589.492310 589.855530,589.960510 590.898804,597.088196 
	C593.292969,613.446716 594.932068,629.864441 589.293091,645.939514 
	C583.364929,662.839050 572.727417,675.048340 554.627075,679.367798 
	C551.175110,680.191589 549.999023,682.347168 549.228577,685.620239 
	C547.165710,694.383850 548.864807,703.196594 548.513367,711.974792 
	C547.084290,747.672119 523.357483,774.866333 488.186981,781.472046 
	C468.312836,785.204834 449.854736,782.481140 432.114075,773.171692 
	C427.175903,770.580383 426.217926,771.143738 426.367523,776.643127 
	C426.711304,789.280579 428.619568,801.823242 428.410858,814.514221 
	C428.156525,829.981201 424.610229,835.136902 409.504486,837.630005 
	C389.498322,840.932068 369.274292,840.316406 349.276276,837.775146 
	C335.232178,835.990479 330.176239,827.427490 332.902039,813.460876 
	C333.156586,812.156616 333.242096,810.710876 333.882263,809.606934 
	C340.774048,797.722534 335.140747,785.988403 333.512878,774.225342 
	C333.179474,771.816162 331.499664,770.466675 328.953644,770.439331 
	C328.620483,770.435730 328.287201,770.435486 327.954041,770.438538 
	C318.633881,770.522827 317.365906,772.057617 318.469696,781.289307 
	C320.035156,794.382324 320.252655,807.488403 318.301483,820.570435 
	C317.333893,827.058105 313.989014,831.440247 307.506348,833.578552 
	C299.035614,836.372620 290.273285,837.676819 281.514954,838.013184 
	C264.720886,838.658203 247.873703,839.045959 231.166229,836.315186 
	C230.509232,836.207764 229.839081,836.165588 229.190872,836.021790 
	C209.226898,831.592957 203.124969,811.608521 217.045685,796.270020 
	C220.583344,792.372070 224.800278,789.356140 229.722046,787.611145 
	C233.642960,786.221008 234.098282,784.083374 233.085480,780.336670 
	C228.094330,761.872803 223.450821,743.315186 218.496918,724.840942 
	C214.612274,710.354309 213.804642,695.639343 214.774796,680.781555 
	C215.071335,676.239990 213.698303,675.304810 209.061417,675.742188 
	C187.283295,677.796631 166.626633,673.246887 147.270081,663.290894 
	C127.236084,652.986511 110.674416,638.471924 97.407478,620.245178 
	C95.940018,618.229187 94.475052,616.158997 93.384567,613.930115 
	C89.027908,605.025085 84.618309,596.271667 79.148499,587.857910 
	C70.040245,573.847412 75.464363,560.052490 91.050316,553.734680 
	C93.101456,552.903259 94.124420,551.761963 94.758278,549.568420 
	C99.478981,533.232178 115.583237,527.904358 129.475784,537.990051 
	C133.423920,540.856323 136.686722,544.408203 139.421539,548.440979 
	C140.848267,550.544922 142.442688,551.907349 145.225220,550.672241 
	C161.799438,543.315247 170.753326,557.065918 172.191406,570.132446 
	C172.445358,572.439819 172.295761,574.794250 172.292694,577.126831 
	C172.277512,588.632202 175.470352,593.633301 186.431122,597.493835 
	C195.528275,600.697876 204.486237,599.496399 212.936737,594.852783 
	C214.067459,594.231445 215.315170,593.548218 215.336777,591.906921 
	C214.583466,589.990234 212.643524,590.050232 211.155991,589.683838 
	C189.987106,584.469910 176.882141,570.573914 169.947586,550.604309 
	C168.117813,545.335022 165.409790,542.894409 160.245819,541.502625 
	C130.369095,533.450073 111.447479,507.678040 112.870781,476.875946 
	C113.287201,467.863983 115.394341,459.062347 119.824165,451.056427 
	C121.470955,448.080200 121.475639,445.933289 119.232933,443.045593 
	C92.373764,408.461761 99.304878,359.711151 134.709000,333.819519 
	C138.018448,331.399231 139.775284,329.447266 138.948456,324.594818 
	C132.248962,285.277130 157.543243,248.907333 196.499603,241.290039 
	C199.755783,240.653351 203.090347,240.217072 206.401398,240.117737 
	C209.720428,240.018158 211.432907,238.719193 212.412857,235.466385 
	C215.787064,224.266296 222.616241,215.376419 231.846863,207.793274 
M211.066284,351.561859 
	C197.555649,371.313843 191.999252,393.836670 188.333542,417.002686 
	C187.331741,423.333649 186.684708,429.265442 181.881805,434.710022 
	C163.286087,455.790192 160.895782,483.897888 174.727280,508.474304 
	C184.446426,525.743652 199.699722,536.929138 216.851212,545.575867 
	C251.406555,562.996643 288.643860,569.408386 326.907990,570.550415 
	C347.890991,571.176697 368.798462,569.458740 389.487061,565.696899 
	C414.619476,561.127197 437.904144,552.615784 457.084869,534.825684 
	C475.955353,517.323486 484.515106,487.043457 475.298676,463.947174 
	C472.112305,455.962128 470.812439,448.739319 471.410095,440.192139 
	C473.075897,416.369263 469.827209,393.044525 460.842194,370.732666 
	C459.829407,368.217590 460.260559,366.673645 462.730011,365.542236 
	C464.997833,364.503235 467.235870,363.373535 469.391541,362.119659 
	C485.813721,352.567627 494.160553,334.661346 489.539337,317.204834 
	C486.052002,304.031433 477.450073,295.027283 464.065277,291.528198 
	C450.940765,288.097107 439.751465,291.984863 430.652771,301.934723 
	C425.349091,307.734528 422.539764,314.862732 420.293091,322.229797 
	C419.377747,325.231171 418.135010,326.627716 414.566284,325.713806 
	C400.493805,322.110199 387.286133,324.464569 374.655426,331.615906 
	C364.667114,337.271179 354.496399,342.652527 343.258087,345.601013 
	C329.546112,349.198456 316.835693,347.768921 305.680389,338.343750 
	C303.691284,336.663116 301.402954,335.899658 298.958862,335.268646 
	C286.781738,332.124786 275.955170,326.362335 266.974396,317.576050 
	C263.957367,314.624359 261.419128,314.305511 257.723206,315.756348 
	C238.949066,323.125946 223.391449,334.639618 211.066284,351.561859 
M396.837280,792.614563 
	C397.564575,791.959595 398.706909,791.431091 398.951294,790.628906 
	C400.451385,785.705505 403.993103,782.605957 407.915527,779.651062 
	C413.369751,775.542236 415.572266,769.767944 415.641998,763.065308 
	C415.714722,756.073608 415.417908,749.060181 416.679413,742.130127 
	C417.743927,736.282166 416.023041,732.245972 410.003479,730.124939 
	C407.257233,729.157288 404.816223,727.135010 402.446014,725.318054 
	C383.949860,711.139160 381.204834,689.699646 395.769867,671.465271 
	C399.807404,666.410522 404.526001,661.875305 409.146240,657.318909 
	C412.333099,654.176147 411.735687,651.719482 408.723907,648.965454 
	C405.285431,645.821167 401.916229,642.575500 398.789948,639.126465 
	C397.270416,637.450012 395.703461,635.066895 397.602905,632.846802 
	C399.606384,630.505127 401.870361,632.176086 403.870422,633.365234 
	C410.537781,637.329651 415.973206,642.697510 421.150024,648.398376 
	C424.571198,652.165894 424.376831,655.179810 420.919250,659.122925 
	C414.985779,665.889587 407.867096,671.552063 402.638397,678.946106 
	C396.081421,688.218689 395.283661,700.033447 400.658936,708.062866 
	C401.398834,709.168213 402.072784,710.532104 403.594788,710.483582 
	C405.267792,710.430298 405.441254,708.886475 405.920471,707.638184 
	C406.574158,705.935303 407.245605,704.198364 408.214020,702.668823 
	C409.182068,701.139893 410.518158,699.379639 412.613617,700.190552 
	C414.842255,701.052979 414.265015,703.150696 413.853394,704.963318 
	C413.484619,706.587402 412.975037,708.187012 412.715942,709.827148 
	C411.632477,716.687256 414.764404,721.594849 421.257935,723.656860 
	C428.443665,725.938782 433.999664,722.300293 439.030914,718.277039 
	C442.897400,715.185120 447.552399,711.643311 444.104095,705.287415 
	C443.595215,704.349426 444.497803,703.447937 445.046112,702.596924 
	C447.836182,698.266296 450.365112,693.749939 453.388092,689.591370 
	C456.651489,685.102051 455.623932,680.836670 453.538177,676.459656 
	C452.968933,675.265137 452.098419,674.217712 451.415710,673.073242 
	C446.839935,665.401978 449.170990,657.224426 457.058319,653.233887 
	C465.881073,648.770081 469.831238,634.498291 463.845093,626.846252 
	C458.003784,619.379395 451.605530,612.325684 443.937988,606.570557 
	C441.834503,604.991760 439.677246,603.925659 437.019012,604.490784 
	C428.636810,606.272827 420.064148,605.696533 412.382721,602.789307 
	C403.634979,599.478394 397.805359,601.202637 390.876251,607.207275 
	C376.870239,619.344727 359.069275,623.370056 341.454712,627.378174 
	C326.341431,630.817078 311.031891,633.790466 300.125793,646.556763 
	C297.344574,649.812378 293.696198,648.924927 291.717712,644.788452 
	C286.326660,633.517456 277.529175,625.653198 267.128418,619.256226 
	C257.466064,613.313354 247.939774,607.181641 240.084534,598.837646 
	C234.303619,592.696960 233.941483,592.762939 227.592712,598.053650 
	C216.815643,607.034668 204.741043,612.171509 190.343063,610.311462 
	C175.060287,608.337219 163.512863,597.753296 160.752792,582.976318 
	C159.711136,577.399475 156.101791,573.865051 151.405914,571.322876 
	C147.198044,569.044922 142.134125,571.029968 140.310043,575.523560 
	C138.856445,579.104553 138.151108,582.830566 138.226425,586.740845 
	C138.262207,588.598511 138.926392,590.748291 137.102768,592.274414 
	C132.400955,590.161377 131.108810,586.862427 132.055862,580.812317 
	C132.747314,576.395081 135.148178,572.237061 134.476868,567.654785 
	C132.971954,557.382446 129.160797,554.512817 117.427933,552.704468 
	C112.947281,552.013916 109.703659,553.221130 107.509804,556.503174 
	C105.465454,559.561584 108.644737,561.979431 109.900970,564.555786 
	C111.235237,567.292236 115.558800,569.803711 111.760406,573.093201 
	C108.351952,576.044922 105.832397,572.174072 103.819046,570.249939 
	C100.855537,567.417725 98.128716,567.919373 95.307159,569.657593 
	C92.183960,571.581604 91.135773,574.936707 92.794975,577.945740 
	C97.070595,585.699890 98.839005,594.584595 103.484535,602.048767 
	C111.416573,614.793640 120.732460,626.518677 133.117615,635.300598 
	C141.657455,641.356018 150.144608,647.991882 159.907211,651.594482 
	C176.324310,657.652649 194.076614,658.387146 211.051346,662.387207 
	C215.675430,663.476868 217.798157,661.958435 218.750153,657.401245 
	C221.684906,643.352844 226.374390,629.830811 231.658707,616.515320 
	C232.696167,613.901123 234.028381,611.382507 235.447708,608.949951 
	C236.198212,607.663696 237.468948,606.490601 239.184998,607.284180 
	C240.748413,608.007324 241.080551,609.528992 240.807831,611.120850 
	C240.415146,613.412781 240.145432,615.755432 239.456726,617.962036 
	C235.588867,630.354919 232.082840,642.841980 229.586624,655.588074 
	C225.229645,677.835388 223.800232,700.096863 229.434296,722.382996 
	C234.401184,742.030090 240.805817,761.294861 244.767044,781.221619 
	C245.626205,785.543640 248.545609,789.228333 253.542374,790.576782 
	C256.416962,791.352600 259.646515,792.113342 261.255798,795.423462 
	C258.851990,796.911316 256.768463,795.952209 254.686172,795.743530 
	C249.054581,795.178955 243.396027,794.559570 237.839310,796.182739 
	C235.620193,796.830933 233.314270,797.534973 233.064041,800.549805 
	C232.827271,803.402710 234.455948,804.837280 236.721191,805.869507 
	C239.797836,807.271545 240.646057,809.209717 239.531662,812.666382 
	C237.829163,817.947266 239.815033,822.424377 243.634171,823.502869 
	C248.834503,824.971436 253.717148,822.428528 255.679291,817.291687 
	C256.268311,815.749817 256.805939,814.119690 257.739075,812.791199 
	C260.264709,809.195618 262.690552,809.458618 264.343323,813.575500 
	C265.507355,816.475098 267.467316,817.282471 270.268219,816.662109 
	C273.082947,816.038635 275.677155,815.041565 277.386536,812.458740 
	C279.541565,809.202515 282.687500,807.680664 286.503906,806.951416 
	C290.891296,806.113220 295.321655,805.229126 298.229828,801.090271 
	C302.104828,795.575439 305.042206,789.590088 307.094482,783.244690 
	C309.403168,776.106262 306.116760,770.361389 299.035370,768.488892 
	C292.549652,766.773926 286.245361,764.680237 280.875854,760.501526 
	C279.086914,759.109253 276.388550,757.517273 277.504181,755.015869 
	C278.731781,752.263245 281.463440,754.321655 283.266693,754.861450 
	C300.081116,759.894104 317.094513,761.848572 334.525330,758.879395 
	C337.581055,758.358887 340.121979,759.202698 341.678040,762.158264 
	C347.758545,773.707642 353.170929,785.396179 350.745483,799.059204 
	C350.312469,801.498657 350.163025,804.042053 350.288544,806.516785 
	C350.625427,813.156067 355.630890,815.836914 361.054901,812.228333 
	C363.888397,810.343140 365.202789,810.449585 366.378448,813.997559 
	C368.299561,819.795288 372.112976,822.071289 377.956360,820.750854 
	C382.039948,819.828125 386.289734,818.663879 388.174896,813.892944 
	C388.993256,811.821899 390.543243,810.069214 392.709381,808.768250 
	C396.747192,806.343140 397.738434,802.038818 395.853546,797.114136 
	C393.677643,798.030518 392.209961,801.104919 389.362122,799.849548 
	C384.082458,797.522095 378.516846,798.930969 373.122314,798.267212 
	C371.396332,798.054749 369.462494,798.811340 367.759888,797.052490 
	C368.847504,793.963623 372.711121,794.654358 374.278229,792.320984 
	C378.964813,785.342773 383.974304,784.920105 390.142609,790.996277 
	C391.856201,792.684265 393.844513,793.088867 396.837280,792.614563 
M255.163239,276.399719 
	C257.745300,288.194855 265.062317,297.353973 272.361847,306.388702 
	C275.236908,309.947205 279.170258,312.769104 282.966949,315.434631 
	C287.760284,318.799866 290.911957,317.335144 292.213531,311.766754 
	C292.732605,309.545990 292.447449,306.580109 296.238403,306.286926 
	C297.352325,308.992645 298.253296,311.665771 299.512665,314.157776 
	C305.547150,326.098419 314.410919,335.629211 329.511292,330.145142 
	C330.538971,329.771912 332.146332,329.517456 332.880493,330.046051 
	C339.026337,334.471191 344.957184,331.745972 350.901154,329.733093 
	C361.299164,326.211914 370.929840,320.472717 381.823120,318.460632 
	C390.451263,316.866974 398.637817,312.523804 407.817932,314.135651 
	C409.568604,314.443085 410.661285,313.091919 411.234009,311.695892 
	C414.556091,303.598114 419.223999,296.443176 424.983124,289.815796 
	C427.516144,286.900940 427.367737,282.727539 424.162262,279.824005 
	C413.379211,270.056732 402.193604,260.618164 388.010773,256.317566 
	C374.606293,252.253006 361.720337,246.867035 348.539368,242.252777 
	C339.636322,239.136078 330.176880,236.636444 321.212311,239.966278 
	C310.379883,243.989914 299.608429,247.381058 288.066986,248.273117 
	C286.134216,248.422485 284.147888,249.236542 282.398438,250.149796 
	C276.790863,253.077087 270.734680,255.515793 265.887604,259.426971 
	C260.846649,263.494568 256.085236,268.456726 255.163239,276.399719 
M420.632568,572.183716 
	C418.488037,572.277344 416.228668,571.963989 414.217773,572.531311 
	C402.051117,575.963440 389.534607,577.403381 377.095642,579.257996 
	C356.084625,582.390625 334.891632,580.844910 313.783478,581.333618 
	C307.834320,581.471313 301.721161,583.394043 295.931274,581.464233 
	C290.899536,579.787109 285.842743,579.867859 280.778381,579.740540 
	C273.899719,579.567688 271.866516,582.771057 271.747620,589.711792 
	C271.635101,596.281555 273.220001,601.347168 278.805939,605.056396 
	C279.963928,605.825317 280.616302,607.411926 281.391968,608.688416 
	C282.900360,611.170715 284.868561,612.987549 287.539154,614.304688 
	C292.717072,616.858398 298.187744,618.696838 302.719940,622.730042 
	C306.539825,626.129395 312.898590,625.257202 316.193695,621.111145 
	C321.164612,614.856506 327.660736,614.442505 334.648956,614.916992 
	C337.119263,615.084656 339.511353,615.848022 342.071167,615.264526 
	C362.112915,610.696045 381.507629,604.972839 394.500427,587.220337 
	C395.857788,585.365784 397.512939,584.120850 400.048279,585.429382 
	C400.870514,585.853760 402.271423,586.255554 402.859894,585.857605 
	C406.973450,583.075989 411.566345,584.161438 415.980774,584.020386 
	C418.831055,583.929260 421.164551,582.864197 423.171417,581.006348 
	C427.076508,577.391113 426.427856,574.332581 420.632568,572.183716 
M199.698486,340.765656 
	C205.452347,343.070984 205.715836,337.037262 208.459122,334.856750 
	C210.821411,332.979095 209.172394,330.986328 207.689621,329.307404 
	C204.865250,326.109314 203.028152,322.403961 202.211349,318.244995 
	C201.818924,316.246918 201.443924,314.048676 203.985718,312.574524 
	C206.337982,315.875519 205.494110,320.153595 208.397415,322.794586 
	C209.650238,323.934235 210.881104,325.428711 212.662415,324.104309 
	C214.418167,322.798828 213.563919,321.087036 212.655136,319.649048 
	C212.134750,318.825623 211.428482,318.023590 210.620499,317.495850 
	C208.129868,315.869293 207.394318,313.588196 208.491150,311.011505 
	C209.741745,308.073669 212.432144,306.292328 215.380234,305.780945 
	C218.473267,305.244385 218.778885,308.342285 219.613541,310.420624 
	C220.511688,312.656982 221.300583,314.941498 224.466278,314.245636 
	C233.686111,312.218994 242.724457,309.657623 251.138336,305.237488 
	C253.405365,304.046539 254.334320,302.478973 253.058212,299.966309 
	C243.199142,280.553955 220.147705,271.925812 200.632843,284.279388 
	C181.118073,296.632904 179.286591,325.060852 199.698486,340.765656 
M174.896744,344.631409 
	C171.235596,349.807037 172.872314,355.643219 173.437805,361.072205 
	C173.971176,366.192688 173.552872,370.916229 172.164185,375.780823 
	C171.033890,379.740204 169.165421,383.497131 169.227631,387.822998 
	C169.306122,393.279938 169.344833,398.759979 167.568909,404.081116 
	C166.630493,406.892883 166.570999,409.758087 169.498474,412.234070 
	C171.369751,409.216370 171.798538,406.406952 171.083649,403.355652 
	C170.227570,399.701874 171.228333,396.643005 173.511261,393.614807 
	C177.716492,388.036774 181.315720,382.116425 182.439743,374.960632 
	C182.880722,372.153290 184.736053,369.817078 186.757172,367.793671 
	C194.145691,360.396912 196.307053,352.318451 185.749344,344.477875 
	C182.350082,341.953491 178.992767,341.036987 174.896744,344.631409 
M165.373703,427.134766 
	C165.616501,425.952118 165.775223,424.547302 164.115036,424.630005 
	C162.115845,424.729614 161.048447,426.321198 160.447495,428.088531 
	C160.103012,429.101624 160.366867,430.186676 161.552277,430.395294 
	C163.534836,430.744141 164.459045,429.358459 165.373703,427.134766 
z"/>
<path fill="#000000" opacity="1.000000" stroke="none" 
	d="
M263.460388,504.647217 
	C267.428192,506.590454 271.207336,507.773834 275.305939,507.653564 
	C287.589508,507.293091 293.472839,500.756317 292.495667,488.596527 
	C292.265930,485.737244 289.943237,484.837891 287.927551,483.796021 
	C280.729492,480.075531 274.507324,475.151215 269.195496,469.053619 
	C266.547058,466.013458 264.413483,462.685699 263.145782,458.809326 
	C259.952148,449.043549 263.054230,440.932617 272.675842,437.218933 
	C293.238892,429.282196 313.598450,430.792145 332.869293,441.252960 
	C343.868591,447.223694 344.946991,457.606506 336.720459,467.216980 
	C329.418976,475.746735 319.674652,480.354797 309.477478,484.202362 
	C300.998444,487.401642 298.828094,499.419891 305.688873,505.585938 
	C317.889862,516.551392 341.758698,512.891968 350.150085,498.728180 
	C352.183319,495.296387 354.027649,490.407288 358.912720,493.298645 
	C363.503326,496.015686 360.708496,500.505402 358.880737,503.944275 
	C353.313141,514.419495 343.471985,518.697144 332.638397,521.158020 
	C321.565338,523.673218 311.098541,521.396484 301.408691,515.866516 
	C297.468536,513.617920 294.195496,513.136780 289.761505,514.853699 
	C271.889587,521.773743 253.693405,515.648193 246.142624,500.556946 
	C245.041916,498.356995 244.246643,495.912140 243.824249,493.490906 
	C243.406311,491.095184 242.992172,488.148651 246.248199,487.222412 
	C249.438019,486.314850 250.663940,488.804138 251.636841,491.178040 
	C253.985596,496.909088 257.476868,501.619598 263.460388,504.647217 
z"/>
<path fill="#000000" opacity="1.000000" stroke="none" 
	d="
M239.749359,435.167450 
	C233.095917,424.479309 233.614471,410.863861 240.935837,401.181488 
	C244.705521,396.196167 249.575333,393.454437 256.072632,394.713013 
	C262.268463,395.913208 265.263550,400.330414 266.891418,405.876495 
	C269.493591,414.742004 268.424164,423.399872 264.292175,431.524567 
	C259.041992,441.847931 248.525177,443.422974 239.749359,435.167450 
z"/>
<path fill="#000000" opacity="1.000000" stroke="none" 
	d="
M389.629211,445.604553 
	C381.469849,455.025116 366.955444,450.946503 364.192657,437.338928 
	C362.402802,428.523407 363.097076,419.747253 368.805176,412.100983 
	C372.391541,407.296814 376.832825,403.890717 383.170105,404.980713 
	C389.548584,406.077820 393.494690,410.287506 395.021088,416.428650 
	C397.589539,426.762268 396.309357,436.536682 389.629211,445.604553 
z"/>
<path fill="#000000" opacity="1.000000" stroke="none" 
	d="
M396.405396,361.394165 
	C401.694794,363.703827 406.301544,366.250000 408.832489,371.377258 
	C410.177368,374.101715 410.445984,376.725739 408.595490,379.363068 
	C406.177795,382.808777 403.078644,383.236023 400.419800,380.018188 
	C393.304688,371.407166 384.586548,368.438324 373.821716,371.806274 
	C370.410217,372.873596 367.913879,371.725189 366.683502,368.338684 
	C365.379944,364.750610 366.841583,362.081726 370.031036,360.490173 
	C376.613129,357.205750 383.502930,357.498596 390.412445,359.287048 
	C392.332092,359.783966 394.173828,360.582062 396.405396,361.394165 
z"/>
<path fill="#000000" opacity="1.000000" stroke="none" 
	d="
M232.185669,364.361267 
	C230.971542,360.146820 232.879013,357.409729 235.739456,355.436646 
	C245.042160,349.019836 255.113525,346.789673 266.043457,350.722046 
	C267.734589,351.330475 269.408508,352.265869 270.782288,353.417572 
	C273.437073,355.643097 274.775787,358.465088 272.683380,361.769714 
	C270.763794,364.801422 267.988770,365.223206 264.839722,363.718903 
	C256.631470,359.797821 248.975143,361.405792 241.652176,366.076904 
	C238.127625,368.325134 234.885574,369.058289 232.185669,364.361267 
z"/>
<path fill="#000000" opacity="1.000000" stroke="none" 
	d="
M466.120026,345.133850 
	C462.716125,347.316132 460.088287,350.122925 456.184875,351.014526 
	C459.806763,347.985779 462.289886,344.155792 465.093658,340.558807 
	C468.226959,336.539001 468.699677,331.914246 468.364258,327.405762 
	C467.773438,319.464600 463.168854,315.287964 455.099335,314.318451 
	C452.311249,313.983429 449.492798,313.901611 446.495789,313.690613 
	C451.412598,307.780426 462.597961,308.658661 468.585327,315.150024 
	C474.681030,321.758850 475.273895,333.022949 469.871124,340.646667 
	C468.815063,342.136902 467.552185,343.480560 466.120026,345.133850 
z"/>
<path fill="#000000" opacity="1.000000" stroke="none" 
	d="
M454.646698,334.273621 
	C452.866486,332.460724 453.005005,330.951202 455.162201,330.309998 
	C456.858337,329.805847 459.693176,329.368561 460.032745,331.284302 
	C460.745514,335.305664 457.125214,334.058807 454.646698,334.273621 
z"/>
</svg>